<mxfile host="Electron" agent="Mozilla/5.0 (Windows NT 10.0; Win64; x64) AppleWebKit/537.36 (KHTML, like Gecko) draw.io/26.2.2 Chrome/134.0.6998.178 Electron/35.1.2 Safari/537.36" version="26.2.2">
  <diagram name="Seite-1" id="Xmry1fhfc5ZjdHBlQPZx">
    <mxGraphModel dx="1867" dy="1036" grid="1" gridSize="10" guides="1" tooltips="1" connect="1" arrows="1" fold="1" page="1" pageScale="1" pageWidth="827" pageHeight="1169" math="0" shadow="0">
      <root>
        <mxCell id="0" />
        <mxCell id="1" parent="0" />
        <mxCell id="Hn9BdjdaorpK9u-EhA4e-4" value="E&lt;div&gt;2&lt;/div&gt;" style="rounded=1;whiteSpace=wrap;html=1;" vertex="1" parent="1">
          <mxGeometry x="200" y="680" width="120" height="60" as="geometry" />
        </mxCell>
        <mxCell id="Hn9BdjdaorpK9u-EhA4e-30" style="edgeStyle=none;shape=connector;rounded=0;orthogonalLoop=1;jettySize=auto;html=1;entryX=0.5;entryY=1;entryDx=0;entryDy=0;strokeColor=default;align=center;verticalAlign=middle;fontFamily=Helvetica;fontSize=11;fontColor=default;labelBackgroundColor=default;endArrow=classic;" edge="1" parent="1" source="Hn9BdjdaorpK9u-EhA4e-5" target="Hn9BdjdaorpK9u-EhA4e-28">
          <mxGeometry relative="1" as="geometry" />
        </mxCell>
        <mxCell id="Hn9BdjdaorpK9u-EhA4e-39" value="1" style="edgeLabel;html=1;align=center;verticalAlign=middle;resizable=0;points=[];fontFamily=Helvetica;fontSize=11;fontColor=default;labelBackgroundColor=default;" vertex="1" connectable="0" parent="Hn9BdjdaorpK9u-EhA4e-30">
          <mxGeometry x="-0.0111" y="3" relative="1" as="geometry">
            <mxPoint y="-1" as="offset" />
          </mxGeometry>
        </mxCell>
        <mxCell id="Hn9BdjdaorpK9u-EhA4e-5" value="U&lt;div&gt;2&lt;/div&gt;" style="rounded=1;whiteSpace=wrap;html=1;" vertex="1" parent="1">
          <mxGeometry x="340" y="680" width="120" height="60" as="geometry" />
        </mxCell>
        <mxCell id="Hn9BdjdaorpK9u-EhA4e-26" style="edgeStyle=none;shape=connector;rounded=0;orthogonalLoop=1;jettySize=auto;html=1;entryX=0.5;entryY=1;entryDx=0;entryDy=0;strokeColor=default;align=center;verticalAlign=middle;fontFamily=Helvetica;fontSize=11;fontColor=default;labelBackgroundColor=default;endArrow=classic;" edge="1" parent="1" source="Hn9BdjdaorpK9u-EhA4e-6" target="Hn9BdjdaorpK9u-EhA4e-25">
          <mxGeometry relative="1" as="geometry" />
        </mxCell>
        <mxCell id="Hn9BdjdaorpK9u-EhA4e-47" value="0" style="edgeLabel;html=1;align=center;verticalAlign=middle;resizable=0;points=[];fontFamily=Helvetica;fontSize=11;fontColor=default;labelBackgroundColor=default;" vertex="1" connectable="0" parent="Hn9BdjdaorpK9u-EhA4e-26">
          <mxGeometry x="0.3534" y="-2" relative="1" as="geometry">
            <mxPoint y="-1" as="offset" />
          </mxGeometry>
        </mxCell>
        <mxCell id="Hn9BdjdaorpK9u-EhA4e-6" value="S&lt;div&gt;2&lt;/div&gt;" style="rounded=1;whiteSpace=wrap;html=1;" vertex="1" parent="1">
          <mxGeometry x="480" y="680" width="120" height="60" as="geometry" />
        </mxCell>
        <mxCell id="Hn9BdjdaorpK9u-EhA4e-20" style="edgeStyle=none;shape=connector;rounded=0;orthogonalLoop=1;jettySize=auto;html=1;entryX=0.5;entryY=1;entryDx=0;entryDy=0;strokeColor=default;align=center;verticalAlign=middle;fontFamily=Helvetica;fontSize=11;fontColor=default;labelBackgroundColor=default;endArrow=classic;" edge="1" parent="1" source="Hn9BdjdaorpK9u-EhA4e-7" target="Hn9BdjdaorpK9u-EhA4e-19">
          <mxGeometry relative="1" as="geometry" />
        </mxCell>
        <mxCell id="Hn9BdjdaorpK9u-EhA4e-54" value="0" style="edgeLabel;html=1;align=center;verticalAlign=middle;resizable=0;points=[];fontFamily=Helvetica;fontSize=11;fontColor=default;labelBackgroundColor=default;" vertex="1" connectable="0" parent="Hn9BdjdaorpK9u-EhA4e-20">
          <mxGeometry x="-0.1019" y="1" relative="1" as="geometry">
            <mxPoint y="-1" as="offset" />
          </mxGeometry>
        </mxCell>
        <mxCell id="Hn9BdjdaorpK9u-EhA4e-7" value="F&lt;div&gt;1&lt;/div&gt;" style="rounded=1;whiteSpace=wrap;html=1;" vertex="1" parent="1">
          <mxGeometry x="620" y="680" width="120" height="60" as="geometry" />
        </mxCell>
        <mxCell id="Hn9BdjdaorpK9u-EhA4e-21" style="edgeStyle=none;shape=connector;rounded=0;orthogonalLoop=1;jettySize=auto;html=1;entryX=0.5;entryY=1;entryDx=0;entryDy=0;strokeColor=default;align=center;verticalAlign=middle;fontFamily=Helvetica;fontSize=11;fontColor=default;labelBackgroundColor=default;endArrow=classic;" edge="1" parent="1" source="Hn9BdjdaorpK9u-EhA4e-8" target="Hn9BdjdaorpK9u-EhA4e-19">
          <mxGeometry relative="1" as="geometry" />
        </mxCell>
        <mxCell id="Hn9BdjdaorpK9u-EhA4e-45" value="1" style="edgeLabel;html=1;align=center;verticalAlign=middle;resizable=0;points=[];fontFamily=Helvetica;fontSize=11;fontColor=default;labelBackgroundColor=default;" vertex="1" connectable="0" parent="Hn9BdjdaorpK9u-EhA4e-21">
          <mxGeometry x="-0.2525" y="-1" relative="1" as="geometry">
            <mxPoint as="offset" />
          </mxGeometry>
        </mxCell>
        <mxCell id="Hn9BdjdaorpK9u-EhA4e-8" value="B&lt;div&gt;1&lt;/div&gt;" style="rounded=1;whiteSpace=wrap;html=1;" vertex="1" parent="1">
          <mxGeometry x="760" y="680" width="120" height="60" as="geometry" />
        </mxCell>
        <mxCell id="Hn9BdjdaorpK9u-EhA4e-17" style="edgeStyle=none;shape=connector;rounded=0;orthogonalLoop=1;jettySize=auto;html=1;entryX=0.5;entryY=1;entryDx=0;entryDy=0;strokeColor=default;align=center;verticalAlign=middle;fontFamily=Helvetica;fontSize=11;fontColor=default;labelBackgroundColor=default;endArrow=classic;" edge="1" parent="1" source="Hn9BdjdaorpK9u-EhA4e-9" target="Hn9BdjdaorpK9u-EhA4e-16">
          <mxGeometry relative="1" as="geometry" />
        </mxCell>
        <mxCell id="Hn9BdjdaorpK9u-EhA4e-48" value="0" style="edgeLabel;html=1;align=center;verticalAlign=middle;resizable=0;points=[];fontFamily=Helvetica;fontSize=11;fontColor=default;labelBackgroundColor=default;" vertex="1" connectable="0" parent="Hn9BdjdaorpK9u-EhA4e-17">
          <mxGeometry x="-0.2368" y="2" relative="1" as="geometry">
            <mxPoint x="-1" as="offset" />
          </mxGeometry>
        </mxCell>
        <mxCell id="Hn9BdjdaorpK9u-EhA4e-9" value="R&lt;div&gt;1&lt;/div&gt;" style="rounded=1;whiteSpace=wrap;html=1;" vertex="1" parent="1">
          <mxGeometry x="900" y="680" width="120" height="60" as="geometry" />
        </mxCell>
        <mxCell id="Hn9BdjdaorpK9u-EhA4e-18" style="edgeStyle=none;shape=connector;rounded=0;orthogonalLoop=1;jettySize=auto;html=1;entryX=0.5;entryY=1;entryDx=0;entryDy=0;strokeColor=default;align=center;verticalAlign=middle;fontFamily=Helvetica;fontSize=11;fontColor=default;labelBackgroundColor=default;endArrow=classic;" edge="1" parent="1" source="Hn9BdjdaorpK9u-EhA4e-10" target="Hn9BdjdaorpK9u-EhA4e-16">
          <mxGeometry relative="1" as="geometry" />
        </mxCell>
        <mxCell id="Hn9BdjdaorpK9u-EhA4e-44" value="1" style="edgeLabel;html=1;align=center;verticalAlign=middle;resizable=0;points=[];fontFamily=Helvetica;fontSize=11;fontColor=default;labelBackgroundColor=default;" vertex="1" connectable="0" parent="Hn9BdjdaorpK9u-EhA4e-18">
          <mxGeometry x="-0.2077" relative="1" as="geometry">
            <mxPoint y="-1" as="offset" />
          </mxGeometry>
        </mxCell>
        <mxCell id="Hn9BdjdaorpK9u-EhA4e-10" value="C&lt;div&gt;1&lt;/div&gt;" style="rounded=1;whiteSpace=wrap;html=1;" vertex="1" parent="1">
          <mxGeometry x="1040" y="680" width="120" height="60" as="geometry" />
        </mxCell>
        <mxCell id="Hn9BdjdaorpK9u-EhA4e-15" style="edgeStyle=none;shape=connector;rounded=0;orthogonalLoop=1;jettySize=auto;html=1;strokeColor=default;align=center;verticalAlign=middle;fontFamily=Helvetica;fontSize=11;fontColor=default;labelBackgroundColor=default;endArrow=classic;" edge="1" parent="1" source="Hn9BdjdaorpK9u-EhA4e-11" target="Hn9BdjdaorpK9u-EhA4e-13">
          <mxGeometry relative="1" as="geometry" />
        </mxCell>
        <mxCell id="Hn9BdjdaorpK9u-EhA4e-43" value="1" style="edgeLabel;html=1;align=center;verticalAlign=middle;resizable=0;points=[];fontFamily=Helvetica;fontSize=11;fontColor=default;labelBackgroundColor=default;" vertex="1" connectable="0" parent="Hn9BdjdaorpK9u-EhA4e-15">
          <mxGeometry x="-0.1044" y="-2" relative="1" as="geometry">
            <mxPoint as="offset" />
          </mxGeometry>
        </mxCell>
        <mxCell id="Hn9BdjdaorpK9u-EhA4e-11" value="L&lt;div&gt;1&lt;/div&gt;" style="rounded=1;whiteSpace=wrap;html=1;" vertex="1" parent="1">
          <mxGeometry x="1320" y="680" width="120" height="60" as="geometry" />
        </mxCell>
        <mxCell id="Hn9BdjdaorpK9u-EhA4e-14" style="rounded=0;orthogonalLoop=1;jettySize=auto;html=1;entryX=0.5;entryY=1;entryDx=0;entryDy=0;" edge="1" parent="1" source="Hn9BdjdaorpK9u-EhA4e-12" target="Hn9BdjdaorpK9u-EhA4e-13">
          <mxGeometry relative="1" as="geometry" />
        </mxCell>
        <mxCell id="Hn9BdjdaorpK9u-EhA4e-50" value="0" style="edgeLabel;html=1;align=center;verticalAlign=middle;resizable=0;points=[];fontFamily=Helvetica;fontSize=11;fontColor=default;labelBackgroundColor=default;" vertex="1" connectable="0" parent="Hn9BdjdaorpK9u-EhA4e-14">
          <mxGeometry x="-0.4197" y="-1" relative="1" as="geometry">
            <mxPoint as="offset" />
          </mxGeometry>
        </mxCell>
        <mxCell id="Hn9BdjdaorpK9u-EhA4e-12" value="H&lt;div&gt;1&lt;/div&gt;" style="rounded=1;whiteSpace=wrap;html=1;" vertex="1" parent="1">
          <mxGeometry x="1180" y="680" width="120" height="60" as="geometry" />
        </mxCell>
        <mxCell id="Hn9BdjdaorpK9u-EhA4e-24" style="edgeStyle=none;shape=connector;rounded=0;orthogonalLoop=1;jettySize=auto;html=1;entryX=0.5;entryY=1;entryDx=0;entryDy=0;strokeColor=default;align=center;verticalAlign=middle;fontFamily=Helvetica;fontSize=11;fontColor=default;labelBackgroundColor=default;endArrow=classic;" edge="1" parent="1" source="Hn9BdjdaorpK9u-EhA4e-13" target="Hn9BdjdaorpK9u-EhA4e-22">
          <mxGeometry relative="1" as="geometry" />
        </mxCell>
        <mxCell id="Hn9BdjdaorpK9u-EhA4e-42" value="1" style="edgeLabel;html=1;align=center;verticalAlign=middle;resizable=0;points=[];fontFamily=Helvetica;fontSize=11;fontColor=default;labelBackgroundColor=default;" vertex="1" connectable="0" parent="Hn9BdjdaorpK9u-EhA4e-24">
          <mxGeometry x="0.1178" relative="1" as="geometry">
            <mxPoint y="-1" as="offset" />
          </mxGeometry>
        </mxCell>
        <mxCell id="Hn9BdjdaorpK9u-EhA4e-13" value="2" style="rounded=1;whiteSpace=wrap;html=1;" vertex="1" parent="1">
          <mxGeometry x="1260" y="540" width="120" height="60" as="geometry" />
        </mxCell>
        <mxCell id="Hn9BdjdaorpK9u-EhA4e-23" style="edgeStyle=none;shape=connector;rounded=0;orthogonalLoop=1;jettySize=auto;html=1;entryX=0.5;entryY=1;entryDx=0;entryDy=0;strokeColor=default;align=center;verticalAlign=middle;fontFamily=Helvetica;fontSize=11;fontColor=default;labelBackgroundColor=default;endArrow=classic;" edge="1" parent="1" source="Hn9BdjdaorpK9u-EhA4e-16" target="Hn9BdjdaorpK9u-EhA4e-22">
          <mxGeometry relative="1" as="geometry" />
        </mxCell>
        <mxCell id="Hn9BdjdaorpK9u-EhA4e-49" value="0" style="edgeLabel;html=1;align=center;verticalAlign=middle;resizable=0;points=[];fontFamily=Helvetica;fontSize=11;fontColor=default;labelBackgroundColor=default;" vertex="1" connectable="0" parent="Hn9BdjdaorpK9u-EhA4e-23">
          <mxGeometry x="-0.2172" y="-2" relative="1" as="geometry">
            <mxPoint y="-1" as="offset" />
          </mxGeometry>
        </mxCell>
        <mxCell id="Hn9BdjdaorpK9u-EhA4e-16" value="2" style="rounded=1;whiteSpace=wrap;html=1;fontFamily=Helvetica;fontSize=11;fontColor=default;labelBackgroundColor=default;" vertex="1" parent="1">
          <mxGeometry x="970" y="540" width="120" height="60" as="geometry" />
        </mxCell>
        <mxCell id="Hn9BdjdaorpK9u-EhA4e-27" style="edgeStyle=none;shape=connector;rounded=0;orthogonalLoop=1;jettySize=auto;html=1;entryX=0.5;entryY=1;entryDx=0;entryDy=0;strokeColor=default;align=center;verticalAlign=middle;fontFamily=Helvetica;fontSize=11;fontColor=default;labelBackgroundColor=default;endArrow=classic;" edge="1" parent="1" source="Hn9BdjdaorpK9u-EhA4e-19" target="Hn9BdjdaorpK9u-EhA4e-25">
          <mxGeometry relative="1" as="geometry" />
        </mxCell>
        <mxCell id="Hn9BdjdaorpK9u-EhA4e-51" value="1" style="edgeLabel;html=1;align=center;verticalAlign=middle;resizable=0;points=[];fontFamily=Helvetica;fontSize=11;fontColor=default;labelBackgroundColor=default;" vertex="1" connectable="0" parent="Hn9BdjdaorpK9u-EhA4e-27">
          <mxGeometry x="-0.4011" y="2" relative="1" as="geometry">
            <mxPoint as="offset" />
          </mxGeometry>
        </mxCell>
        <mxCell id="Hn9BdjdaorpK9u-EhA4e-19" value="2" style="rounded=1;whiteSpace=wrap;html=1;fontFamily=Helvetica;fontSize=11;fontColor=default;labelBackgroundColor=default;" vertex="1" parent="1">
          <mxGeometry x="690" y="540" width="120" height="60" as="geometry" />
        </mxCell>
        <mxCell id="Hn9BdjdaorpK9u-EhA4e-33" style="edgeStyle=none;shape=connector;rounded=0;orthogonalLoop=1;jettySize=auto;html=1;entryX=0.5;entryY=1;entryDx=0;entryDy=0;strokeColor=default;align=center;verticalAlign=middle;fontFamily=Helvetica;fontSize=11;fontColor=default;labelBackgroundColor=default;endArrow=classic;" edge="1" parent="1" source="Hn9BdjdaorpK9u-EhA4e-22" target="Hn9BdjdaorpK9u-EhA4e-31">
          <mxGeometry relative="1" as="geometry" />
        </mxCell>
        <mxCell id="Hn9BdjdaorpK9u-EhA4e-41" value="1" style="edgeLabel;html=1;align=center;verticalAlign=middle;resizable=0;points=[];fontFamily=Helvetica;fontSize=11;fontColor=default;labelBackgroundColor=default;" vertex="1" connectable="0" parent="Hn9BdjdaorpK9u-EhA4e-33">
          <mxGeometry x="0.4122" y="-2" relative="1" as="geometry">
            <mxPoint as="offset" />
          </mxGeometry>
        </mxCell>
        <mxCell id="Hn9BdjdaorpK9u-EhA4e-22" value="4" style="rounded=1;whiteSpace=wrap;html=1;fontFamily=Helvetica;fontSize=11;fontColor=default;labelBackgroundColor=default;" vertex="1" parent="1">
          <mxGeometry x="1121" y="360" width="120" height="60" as="geometry" />
        </mxCell>
        <mxCell id="Hn9BdjdaorpK9u-EhA4e-32" style="edgeStyle=none;shape=connector;rounded=0;orthogonalLoop=1;jettySize=auto;html=1;entryX=0.5;entryY=1;entryDx=0;entryDy=0;strokeColor=default;align=center;verticalAlign=middle;fontFamily=Helvetica;fontSize=11;fontColor=default;labelBackgroundColor=default;endArrow=classic;" edge="1" parent="1" source="Hn9BdjdaorpK9u-EhA4e-25" target="Hn9BdjdaorpK9u-EhA4e-31">
          <mxGeometry relative="1" as="geometry" />
        </mxCell>
        <mxCell id="Hn9BdjdaorpK9u-EhA4e-46" value="0" style="edgeLabel;html=1;align=center;verticalAlign=middle;resizable=0;points=[];fontFamily=Helvetica;fontSize=11;fontColor=default;labelBackgroundColor=default;" vertex="1" connectable="0" parent="Hn9BdjdaorpK9u-EhA4e-32">
          <mxGeometry x="0.0322" y="-5" relative="1" as="geometry">
            <mxPoint y="-1" as="offset" />
          </mxGeometry>
        </mxCell>
        <mxCell id="Hn9BdjdaorpK9u-EhA4e-25" value="4" style="rounded=1;whiteSpace=wrap;html=1;fontFamily=Helvetica;fontSize=11;fontColor=default;labelBackgroundColor=default;" vertex="1" parent="1">
          <mxGeometry x="600" y="390" width="120" height="60" as="geometry" />
        </mxCell>
        <mxCell id="Hn9BdjdaorpK9u-EhA4e-35" style="edgeStyle=none;shape=connector;rounded=0;orthogonalLoop=1;jettySize=auto;html=1;entryX=0.5;entryY=1;entryDx=0;entryDy=0;strokeColor=default;align=center;verticalAlign=middle;fontFamily=Helvetica;fontSize=11;fontColor=default;labelBackgroundColor=default;endArrow=classic;" edge="1" parent="1" source="Hn9BdjdaorpK9u-EhA4e-28" target="Hn9BdjdaorpK9u-EhA4e-34">
          <mxGeometry relative="1" as="geometry" />
        </mxCell>
        <mxCell id="Hn9BdjdaorpK9u-EhA4e-37" value="0" style="edgeLabel;html=1;align=center;verticalAlign=middle;resizable=0;points=[];fontFamily=Helvetica;fontSize=11;fontColor=default;labelBackgroundColor=default;" vertex="1" connectable="0" parent="Hn9BdjdaorpK9u-EhA4e-35">
          <mxGeometry x="0.1227" y="-1" relative="1" as="geometry">
            <mxPoint as="offset" />
          </mxGeometry>
        </mxCell>
        <mxCell id="Hn9BdjdaorpK9u-EhA4e-28" value="4" style="rounded=1;whiteSpace=wrap;html=1;fontFamily=Helvetica;fontSize=11;fontColor=default;labelBackgroundColor=default;" vertex="1" parent="1">
          <mxGeometry x="270" y="540" width="120" height="60" as="geometry" />
        </mxCell>
        <mxCell id="Hn9BdjdaorpK9u-EhA4e-29" style="edgeStyle=none;shape=connector;rounded=0;orthogonalLoop=1;jettySize=auto;html=1;entryX=0.421;entryY=0.947;entryDx=0;entryDy=0;entryPerimeter=0;strokeColor=default;align=center;verticalAlign=middle;fontFamily=Helvetica;fontSize=11;fontColor=default;labelBackgroundColor=default;endArrow=classic;" edge="1" parent="1" source="Hn9BdjdaorpK9u-EhA4e-4" target="Hn9BdjdaorpK9u-EhA4e-28">
          <mxGeometry relative="1" as="geometry" />
        </mxCell>
        <mxCell id="Hn9BdjdaorpK9u-EhA4e-38" value="0" style="edgeLabel;html=1;align=center;verticalAlign=middle;resizable=0;points=[];fontFamily=Helvetica;fontSize=11;fontColor=default;labelBackgroundColor=default;" vertex="1" connectable="0" parent="Hn9BdjdaorpK9u-EhA4e-29">
          <mxGeometry x="0.0451" y="2" relative="1" as="geometry">
            <mxPoint as="offset" />
          </mxGeometry>
        </mxCell>
        <mxCell id="Hn9BdjdaorpK9u-EhA4e-36" style="edgeStyle=none;shape=connector;rounded=0;orthogonalLoop=1;jettySize=auto;html=1;entryX=0.5;entryY=1;entryDx=0;entryDy=0;strokeColor=default;align=center;verticalAlign=middle;fontFamily=Helvetica;fontSize=11;fontColor=default;labelBackgroundColor=default;endArrow=classic;" edge="1" parent="1" source="Hn9BdjdaorpK9u-EhA4e-31" target="Hn9BdjdaorpK9u-EhA4e-34">
          <mxGeometry relative="1" as="geometry" />
        </mxCell>
        <mxCell id="Hn9BdjdaorpK9u-EhA4e-40" value="1" style="edgeLabel;html=1;align=center;verticalAlign=middle;resizable=0;points=[];fontFamily=Helvetica;fontSize=11;fontColor=default;labelBackgroundColor=default;" vertex="1" connectable="0" parent="Hn9BdjdaorpK9u-EhA4e-36">
          <mxGeometry x="-0.2858" y="1" relative="1" as="geometry">
            <mxPoint as="offset" />
          </mxGeometry>
        </mxCell>
        <mxCell id="Hn9BdjdaorpK9u-EhA4e-31" value="8" style="rounded=1;whiteSpace=wrap;html=1;fontFamily=Helvetica;fontSize=11;fontColor=default;labelBackgroundColor=default;" vertex="1" parent="1">
          <mxGeometry x="790" y="150" width="120" height="60" as="geometry" />
        </mxCell>
        <mxCell id="Hn9BdjdaorpK9u-EhA4e-34" value="12" style="rounded=1;whiteSpace=wrap;html=1;fontFamily=Helvetica;fontSize=11;fontColor=default;labelBackgroundColor=default;" vertex="1" parent="1">
          <mxGeometry x="400" y="20" width="120" height="60" as="geometry" />
        </mxCell>
        <mxCell id="Hn9BdjdaorpK9u-EhA4e-53" value="E=00&lt;div&gt;U=01&lt;/div&gt;&lt;div&gt;S=100&lt;/div&gt;&lt;div&gt;F=1010&lt;/div&gt;&lt;div&gt;B=1011&lt;/div&gt;&lt;div&gt;R=1100&lt;/div&gt;&lt;div&gt;C=1101&lt;/div&gt;&lt;div&gt;H=1110&lt;/div&gt;&lt;div&gt;L=1111&lt;/div&gt;" style="rounded=0;whiteSpace=wrap;html=1;fontFamily=Helvetica;fontSize=11;fontColor=default;labelBackgroundColor=default;" vertex="1" parent="1">
          <mxGeometry x="90" y="790" width="120" height="180" as="geometry" />
        </mxCell>
        <mxCell id="Hn9BdjdaorpK9u-EhA4e-55" value="1011 00 1100 01 1010 100 100 1101 1110 01 1111 00" style="rounded=0;whiteSpace=wrap;html=1;fontFamily=Helvetica;fontSize=11;fontColor=default;labelBackgroundColor=default;" vertex="1" parent="1">
          <mxGeometry x="330" y="940" width="890" height="60" as="geometry" />
        </mxCell>
        <mxCell id="Hn9BdjdaorpK9u-EhA4e-57" style="edgeStyle=none;shape=connector;rounded=0;orthogonalLoop=1;jettySize=auto;html=1;strokeColor=default;align=center;verticalAlign=middle;fontFamily=Helvetica;fontSize=11;fontColor=default;labelBackgroundColor=default;endArrow=classic;" edge="1" parent="1" source="Hn9BdjdaorpK9u-EhA4e-56" target="Hn9BdjdaorpK9u-EhA4e-55">
          <mxGeometry relative="1" as="geometry" />
        </mxCell>
        <mxCell id="Hn9BdjdaorpK9u-EhA4e-56" value="BERUFSSCHULE" style="rounded=0;whiteSpace=wrap;html=1;fontFamily=Helvetica;fontSize=11;fontColor=default;labelBackgroundColor=default;" vertex="1" parent="1">
          <mxGeometry x="330" y="800" width="890" height="60" as="geometry" />
        </mxCell>
      </root>
    </mxGraphModel>
  </diagram>
</mxfile>
